<?xml version="1.0" encoding="UTF-8"?>
<svg id="uuid-de253316-ccd1-4fb4-83d7-cb39d0865078" data-name="Layer 1" xmlns="http://www.w3.org/2000/svg" viewBox="0 0 927 202.2">
  <g>
    <path d="M160.5,51.4c-5.3,12.3-8.7,25.5-9.8,39.4-.2,2-1.9,3.6-3.9,3.6h-41.9c-2.1,0-3.8-1.6-3.9-3.6-2.1-26.2-12.3-50-28-69.2-1.3-1.6-1.2-3.8,.3-5.3l8.4-8.4c10.7-10.7,28.2-10.7,38.9,0l39.1,39.1c1.1,1.1,1.5,2.8,.8,4.3Z" style="fill: #334155;"/>
    <path d="M159.7,155l-39.2,39.2c-10.7,10.7-28.2,10.7-38.9,0l-8.4-8.4c-1.4-1.4-1.5-3.7-.3-5.3,15.7-19.1,25.9-43,28-69.2,.2-2,1.9-3.6,3.9-3.6h41.9c2.1,0,3.8,1.6,3.9,3.6,1.1,13.9,4.5,27.2,9.8,39.5,.6,1.5,.3,3.1-.8,4.3Z" style="fill: #334155;"/>
    <path d="M194.2,120.6l-18.2,18.2c-2.1,2.1-5.6,1.3-6.5-1.5-3.2-9.4-5.2-19.3-5.8-29.6-.1-2.2-.2-4.4-.2-6.6s0-4.4,.2-6.6c.6-10.3,2.6-20.2,5.8-29.6,.9-2.8,4.5-3.5,6.5-1.5l18.2,18.2c10.7,10.7,10.7,28.2,0,38.9Z" style="fill: #334155;"/>
    <path d="M88.2,101.1c0,2.2,0,4.4-.2,6.6-1.4,23.6-10.1,45.3-23.9,62.7-1.5,1.8-4.2,2-5.9,.3L8,120.6c-10.7-10.7-10.7-28.2,0-38.9L58.2,31.5c1.7-1.7,4.4-1.5,5.9,.3,13.8,17.4,22.5,39.1,23.9,62.7,.1,2.2,.2,4.4,.2,6.6Z" style="fill: #334155;"/>
  </g>
  <g>
    <polygon points="291.7 93.9 266.4 93.9 266.4 70 250 70 250 132 266.4 132 266.4 107.5 291.7 107.5 291.7 132 308.1 132 308.1 70 291.7 70 291.7 93.9" style="fill: #334155;"/>
    <path d="M354.8,90c-3.6-1.8-7.9-2.8-12.8-2.8s-9.2,.9-12.8,2.8c-3.6,1.8-6.5,4.5-8.5,7.9-2,3.4-3,7.5-3,12.2s1,8.7,3,12.1c2,3.5,4.8,6.1,8.5,8,3.7,1.8,8,2.8,12.9,2.8s9.2-.9,12.8-2.8c3.6-1.8,6.5-4.5,8.5-8,2-3.5,3-7.5,3-12.1s-1-8.8-3-12.2c-2-3.4-4.9-6.1-8.5-7.9Zm-6.7,28.3c-1.5,1.8-3.6,2.7-6.2,2.7s-4.6-.9-6.2-2.7c-1.5-1.8-2.3-4.5-2.3-8.2s.8-6.4,2.3-8.2c1.5-1.8,3.6-2.7,6.2-2.7s4.6,.9,6.2,2.7c1.5,1.8,2.3,4.5,2.3,8.2s-.8,6.4-2.3,8.2Z" style="fill: #334155;"/>
    <path d="M400.5,105.9l-9.9-1.6c-1.2-.2-2.1-.5-2.7-1-.6-.5-.9-1.1-.9-1.8s.6-1.8,1.7-2.5c1.1-.6,3-1,5.6-1s3,.2,4.7,.5c1.7,.3,3.3,.8,4.8,1.4,1.6,.6,2.9,1.3,4.1,2l3.9-10.1c-1.5-1.1-3.2-1.9-5.1-2.6-1.9-.7-3.9-1.2-6.1-1.5-2.2-.3-4.4-.5-6.6-.5-4.4,0-8.2,.6-11.4,1.9-3.2,1.3-5.6,3-7.3,5.2-1.7,2.2-2.5,4.8-2.5,7.7s1,6,3.1,8.2c2.1,2.2,5.1,3.6,9.1,4.1l10,1.4c1.3,.2,2.2,.5,2.9,1,.6,.5,.9,1.1,.9,2s-.5,1.9-1.6,2.5c-1.1,.6-2.8,.9-5.4,.9s-3.6-.2-5.6-.5c-2-.4-3.9-.8-5.7-1.5-1.8-.6-3.5-1.3-5.1-2.1l-3.5,10.3c1.6,1,3.4,1.8,5.5,2.5,2.1,.7,4.4,1.2,6.9,1.5,2.5,.4,5.1,.5,7.9,.5,4.2,0,7.9-.6,11-1.8,3.1-1.2,5.5-2.9,7.2-5.1,1.7-2.2,2.5-4.9,2.5-8s-1-6.3-3.1-8.3c-2.1-2-5.2-3.3-9.5-4Z" style="fill: #334155;"/>
    <path d="M453.7,89.3c-3.2-1.4-7.2-2.1-12-2.1s-4.9,.2-7.5,.7c-2.6,.4-5.1,1.1-7.4,1.8-2.3,.8-4.4,1.7-6.2,2.8l3.9,10.4c2.8-1.5,5.6-2.6,8.2-3.3,2.7-.6,5.1-1,7.4-1s4.9,.4,6.1,1.3c1.3,.9,1.9,2.4,1.9,4.7v.9h-3.5c-6.2,0-11.1,.4-14.9,1.3s-6.5,2.3-8.3,4.1c-1.7,1.9-2.6,4.4-2.6,7.6s.7,5.2,2.2,7.4c1.5,2.2,3.5,3.9,6.1,5.1,2.6,1.3,5.6,1.9,9,1.9s4.5-.4,6.2-1.1c1.8-.8,3.2-1.8,4.4-3.2,1.1-1.3,1.9-2.7,2.5-4.4v7.8h14.2v-25.1c0-4.6-.8-8.4-2.5-11.3-1.6-2.9-4.1-5-7.3-6.4Zm-6.8,29.3c-.7,1.2-1.7,2.2-2.9,2.9-1.2,.7-2.5,1.1-4,1.1s-3.3-.4-4.3-1.3c-1-.8-1.5-2-1.5-3.4s.2-1.6,.7-2.2c.4-.6,1.1-1.1,2-1.5,.9-.4,2-.7,3.3-.8,1.3-.2,2.9-.3,4.8-.3h3.1v1.2c0,1.6-.4,3.1-1.1,4.3Z" style="fill: #334155;"/>
    <path d="M539.4,89.4c-2.3-1.4-5.1-2.1-8.5-2.1s-6.6,.9-9.3,2.6c-2.4,1.6-4.3,3.5-5.5,5.9-1-2.6-2.6-4.7-4.7-6.1-2.3-1.6-5.1-2.3-8.3-2.3s-4.4,.4-6.3,1.1c-1.9,.7-3.6,1.8-5,3.1-1.2,1.1-2.2,2.5-3,3.9v-7.2h-15v43.8h16v-23.5c0-1.8,.3-3.4,.8-4.6,.6-1.3,1.4-2.2,2.4-2.9,1.1-.7,2.3-1.1,3.9-1.1s3.1,.6,3.9,1.7c.8,1.1,1.2,2.9,1.2,5.4v25h15.9v-23.5c0-1.8,.3-3.4,.8-4.7,.6-1.3,1.4-2.3,2.5-2.9,1.1-.7,2.4-1,3.8-1s3.3,.6,4,1.7c.8,1.1,1.1,2.9,1.1,5.5v25h16v-25.3c0-4.5-.6-8.1-1.7-11-1.1-2.8-2.8-5-5.1-6.4Z" style="fill: #334155;"/>
    <path d="M600.3,107.1c0,5.9-1.4,10.2-4.1,13.1-2.7,2.8-6.7,4.3-12,4.3s-9.3-1.4-12-4.3c-2.7-2.8-4.1-7.2-4.1-13.1v-37.1h-9.4v37.3c0,8.4,2.2,14.7,6.6,19.1,4.4,4.3,10.7,6.5,19,6.5s14.6-2.2,18.9-6.5c4.3-4.3,6.5-10.7,6.5-19.1v-37.3h-9.3v37.1Z" style="fill: #334155;"/>
    <path d="M683.2,89.9c-2.2-1.3-4.9-1.9-8.2-1.9s-7,.9-9.6,2.8c-2.3,1.7-4.1,3.8-5.2,6.3-.8-2.7-2.3-4.9-4.4-6.5-2.3-1.8-5.3-2.6-9-2.6s-4.5,.4-6.4,1.2c-1.9,.8-3.6,2-5,3.5-1.1,1.2-2.1,2.7-2.8,4.3v-8.2h-8.7v43.3h9.2v-24.2c0-2.3,.4-4.4,1.3-6.3,.9-1.8,2.1-3.3,3.7-4.4,1.6-1.1,3.6-1.6,5.9-1.6s4.9,.9,6.2,2.6c1.3,1.7,2,4.4,2,7.9v26h9.2v-24.1c0-2.5,.4-4.6,1.3-6.5,.9-1.9,2.1-3.3,3.8-4.4,1.6-1,3.6-1.5,5.8-1.5s5.2,.9,6.4,2.6c1.2,1.7,1.8,4.4,1.8,7.9v26h9.2v-26.5c0-4-.6-7.3-1.7-9.9-1.1-2.6-2.8-4.5-5-5.8Z" style="fill: #334155;"/>
    <path d="M737.6,90.7c-2.9-1.8-6.3-2.8-10.3-2.8s-6.9,.9-9.5,2.6c-2.3,1.5-4,3.5-5.1,5.8v-26.4h-9.3v62h8.8v-8.4c1.2,2.7,2.9,4.8,5.3,6.4,2.7,1.8,6,2.7,9.7,2.7s7.4-.9,10.3-2.8c2.9-1.8,5.2-4.5,6.8-7.8,1.6-3.4,2.4-7.3,2.4-11.8s-.8-8.5-2.4-11.9c-1.6-3.3-3.8-5.9-6.7-7.8Zm-3.5,30.9c-2.2,2.7-5.3,4-9.2,4s-6.8-1.3-9-4c-2.3-2.7-3.4-6.4-3.4-11.2s1.1-8.6,3.3-11.2c2.2-2.6,5.2-3.9,9.1-3.9s6.8,1.3,9.1,3.9c2.3,2.6,3.4,6.4,3.4,11.2s-1.1,8.6-3.3,11.2Z" style="fill: #334155;"/>
    <path d="M786.6,89.8c-2.7-1.2-6-1.8-9.9-1.8s-4.4,.2-6.6,.6c-2.3,.4-4.4,1-6.5,1.8-2.1,.8-4,1.7-5.7,2.8l2.8,6.5c2.7-1.6,5.3-2.7,7.8-3.4,2.5-.7,5-1.1,7.5-1.1s5.9,.7,7.5,2.1c1.6,1.4,2.4,3.8,2.4,7v2.1h-3.8c-6.3,0-11.3,.4-15.1,1.3-3.8,.9-6.6,2.2-8.3,4.1-1.7,1.9-2.6,4.4-2.6,7.7s.7,4.8,2.1,6.8c1.4,2,3.3,3.6,5.8,4.8s5.2,1.8,8.3,1.8,4.8-.4,6.7-1.3c2-.8,3.6-2.1,5-3.6,1.1-1.3,2-2.8,2.6-4.4v8.5h8.4v-26.8c0-4-.7-7.3-2.1-9.9-1.4-2.5-3.5-4.4-6.2-5.6Zm-2.3,30.5c-1.1,1.8-2.5,3.2-4.2,4.2-1.8,1-3.8,1.5-6.1,1.5s-4.8-.6-6.4-1.9c-1.6-1.3-2.4-3-2.4-5.2s.3-2.4,.9-3.2c.6-.8,1.6-1.5,2.9-2.1,1.3-.5,3.1-.9,5.3-1.1,2.2-.2,4.8-.3,8-.3h3.5v2c0,2.2-.5,4.2-1.6,6Z" style="fill: #334155;"/>
    <path d="M839.8,96.6c-1.1-2.5-2.8-4.5-5.1-6-2.7-1.8-5.9-2.6-9.5-2.6s-7.3,.9-10.2,2.8c-2.9,1.8-5.2,4.4-6.8,7.8-1.6,3.3-2.4,7.3-2.4,11.9s.8,8.5,2.4,11.8c1.6,3.4,3.9,6,6.8,7.8,2.9,1.8,6.3,2.8,10.3,2.8s7-.9,9.7-2.7c2.5-1.6,4.3-3.9,5.4-6.7v8.6h8.7v-62h-9.2v26.6Zm-3.3,25c-2.2,2.7-5.3,4-9.1,4s-6.9-1.3-9.1-4c-2.3-2.7-3.4-6.4-3.4-11.2s1.1-8.6,3.4-11.2c2.3-2.6,5.3-3.9,9.1-3.9s6.8,1.3,9.1,3.9c2.2,2.6,3.3,6.4,3.3,11.2s-1.1,8.6-3.3,11.2Z" style="fill: #334155;"/>
    <path d="M894.2,96.6c-1.1-2.5-2.8-4.5-5.1-6-2.7-1.8-5.9-2.6-9.5-2.6s-7.3,.9-10.2,2.8c-2.9,1.8-5.2,4.4-6.8,7.8-1.6,3.3-2.4,7.3-2.4,11.9s.8,8.5,2.4,11.8c1.6,3.4,3.9,6,6.8,7.8,2.9,1.8,6.3,2.8,10.3,2.8s7-.9,9.7-2.7c2.5-1.6,4.3-3.9,5.4-6.7v8.6h8.7v-62h-9.2v26.6Zm-3.3,25c-2.2,2.7-5.3,4-9.1,4s-6.9-1.3-9.1-4c-2.3-2.7-3.4-6.4-3.4-11.2s1.1-8.6,3.4-11.2c2.3-2.6,5.3-3.9,9.1-3.9s6.8,1.3,9.1,3.9c2.2,2.6,3.3,6.4,3.3,11.2s-1.1,8.6-3.3,11.2Z" style="fill: #334155;"/>
    <rect x="916.2" y="69.2" width="10.8" height="9.7" style="fill: #334155;"/>
    <rect x="917" y="88.7" width="9.3" height="43.3" style="fill: #334155;"/>
  </g>
</svg>