<?xml version="1.0" encoding="UTF-8"?>
<svg id="uuid-9c79e38a-87a9-466a-bc34-8c8510428eee" data-name="LogoBroken" xmlns="http://www.w3.org/2000/svg" viewBox="0 0 987.9 919.6">
  <path d="M506.8,146.3c-84.4,38.5-225.1-36.9-283.3,38.8-58.2,75.7,11.6,137.9-27.2,259.1-38.8,121.2-60.2,278.3,131.9,342.4,192.1,64,170-269.6,324-242.5,154,27.1,331.8-19.4,311.8-209.6-7.9-74.7-102.9-170.3-239.9-160.9-45.9,3.1-91.8-4.5-135.2-19.7-19.2-6.7-45.7-10.7-82.2-7.6Z" style="fill: red; opacity: .1;"/>
  <path d="M714.8,269.9c-32.7,47.7-58.1,101.2-74.4,159.3-2.4,8.5-10.9,13.8-19.6,12.1l-177.8-34.7c-8.7-1.7-14.7-9.8-13.7-18.6,12.7-112.8-10.6-222.6-61.5-316.8-4.2-7.7-1.8-17.3,5.5-22.2l42.7-28.8c54.3-36.6,128.6-22.1,165.2,32.2l133.7,198.4c3.9,5.7,3.9,13.3,0,19Z" style="fill: #ff004f;"/>
  <path d="M783.2,666.4l-132,199.9c-36.1,54.6-110.3,69.8-164.9,33.7l-43-28.4c-7.3-4.8-9.8-14.4-5.7-22.1,50-94.7,72.4-204.7,58.6-317.4-1.1-8.8,4.8-16.9,13.5-18.7l177.5-36.3c8.7-1.8,17.3,3.4,19.7,11.9,16.8,58,42.8,111.3,75.9,158.7,3.9,5.6,4,13,.3,18.8Z" style="fill: #ff004f;"/>
  <path d="M940.1,555l-89.4,66.6c-10.1,7.5-24.7,1.9-27-10.5-7.9-42.1-10.2-85.8-6.3-130.3,.8-9.4,1.9-18.9,3.3-28.4,1.4-9.5,3-18.9,5-28.1,9-43.7,23.7-85,43.3-123,5.7-11.2,21.3-12.4,28.8-2.3l66.6,89.4c39.1,52.5,28.2,127.4-24.3,166.5Z" style="fill: #ff004f;"/>
  <path d="M352.8,442.1c4.4,8.5,8.5,17.1,12.3,25.8,41.2,93.7,50.3,194.3,31.5,288.7-2,10-12.3,15.9-22,12.8l-292.2-94.6c-62.3-20.2-96.7-87.6-76.5-149.9L100.4,232.7c3.1-9.7,14-14.6,23.3-10.3,87.5,40.1,163.6,106.4,215.4,194.7,4.8,8.1,9.3,16.5,13.7,25Z" style="fill: #ff004f;"/>
</svg>