<?xml version="1.0" encoding="UTF-8"?>
<svg id="uuid-c01e2658-3b6b-4416-9e9e-a4bbdc86c72c" data-name="Layer 1" xmlns="http://www.w3.org/2000/svg" viewBox="0 0 1022 557.3">
  <path d="M1021.3,236.5l-110.5,110.5-45.8,45.8-64.7,64.7-91.5,91.5h0c-10.5,10.5-27.5,10.5-38,0l-156.2-156.2-45.8-45.8,110.5-110.5,110.5,110.5,110.5-110.5-110.5-110.5,45.8-45.8,39.2-39.2c14.1-14.1,37-14.1,51.1,0l195.4,195.4Z" style="fill: #334155; stroke: #334155; stroke-miterlimit: 10;" />
  <path d="M553.2,210.4l-110.5,110.5-110.5-110.5-110.5,110.5,110.5,110.5-45.8,45.8-39.1,39.1c-14.1,14.1-37,14.1-51.2,0l-39.2-39.2-45.8-45.8L.7,320.8l110.5-110.5,45.8-45.8,64.7-64.7L313.2,8.3h0c10.5-10.5,27.5-10.5,37.9,0l91.5,91.5,64.7,64.7,45.8,45.8Z" style="fill: #334155; stroke: #334155; stroke-miterlimit: 10;" />
</svg>